<?xml version="1.0" encoding="iso-8859-1"?>
<!-- Generator: Adobe Illustrator 19.0.0, SVG Export Plug-In . SVG Version: 6.00 Build 0)  -->
<svg version="1.1" id="Capa_1" xmlns="http://www.w3.org/2000/svg" xmlns:xlink="http://www.w3.org/1999/xlink" x="0px" y="0px"
	 viewBox="0 0 512 512" style="enable-background:new 0 0 512 512;" xml:space="preserve">
<g>
	<g>
		<path d="M279.999,0c-105.888,0-192,86.112-192,192v28.224l-46.304,92.608c-2.496,4.96-2.208,10.848,0.704,15.552
			c2.912,4.704,8.064,7.616,13.6,7.616h32v77.056c0,9.408,4.096,18.272,11.296,24.352c7.2,6.08,16.544,8.736,25.888,7.168
			l58.816-9.728V496c0,4.704,2.048,9.184,5.664,12.192c2.912,2.464,6.56,3.808,10.336,3.808c0.864,0,1.76-0.064,2.624-0.224l192-32
			c7.712-1.28,13.376-7.936,13.376-15.776v-98.592c0-22.272,10.944-40.128,20.128-51.232C456.415,280,471.999,236.608,471.999,192
			C471.999,86.112,385.887,0,279.999,0z"/>
	</g>
</g>
<g>
</g>
<g>
</g>
<g>
</g>
<g>
</g>
<g>
</g>
<g>
</g>
<g>
</g>
<g>
</g>
<g>
</g>
<g>
</g>
<g>
</g>
<g>
</g>
<g>
</g>
<g>
</g>
<g>
</g>
</svg>
